<svg width="42" height="42" viewBox="0 0 42 42" fill="none" xmlns="http://www.w3.org/2000/svg">
<path d="M12.9799 21.7076C13.3704 21.3171 13.3704 20.6839 12.9799 20.2934L6.61593 13.9295C6.22541 13.5389 5.59224 13.5389 5.20172 13.9295C4.8112 14.32 4.8112 14.9531 5.20172 15.3437L10.8586 21.0005L5.20172 26.6574C4.8112 27.0479 4.8112 27.6811 5.20172 28.0716C5.59224 28.4621 6.22541 28.4621 6.61593 28.0716L12.9799 21.7076ZM0 22.0005H12.2728V20.0005H0V22.0005Z" fill="white"/>
<path d="M29.0201 20.2934C28.6296 20.6839 28.6296 21.3171 29.0201 21.7076L35.3841 28.0716C35.7746 28.4621 36.4078 28.4621 36.7983 28.0716C37.1888 27.6811 37.1888 27.0479 36.7983 26.6574L31.1414 21.0005L36.7983 15.3437C37.1888 14.9531 37.1888 14.32 36.7983 13.9295C36.4078 13.5389 35.7746 13.5389 35.3841 13.9295L29.0201 20.2934ZM42 20.0005L29.7272 20.0005L29.7272 22.0005L42 22.0005L42 20.0005Z" fill="white"/>
<path d="M21.7071 29.0201C21.3166 28.6296 20.6834 28.6296 20.2929 29.0201L13.9289 35.3841C13.5384 35.7746 13.5384 36.4078 13.9289 36.7983C14.3195 37.1888 14.9526 37.1888 15.3431 36.7983L21 31.1414L26.6569 36.7983C27.0474 37.1888 27.6805 37.1888 28.0711 36.7983C28.4616 36.4078 28.4616 35.7746 28.0711 35.3841L21.7071 29.0201ZM22 42V29.7272H20V42H22Z" fill="white"/>
<path d="M20.2929 12.9799C20.6834 13.3704 21.3166 13.3704 21.7071 12.9799L28.0711 6.61593C28.4616 6.22541 28.4616 5.59224 28.0711 5.20172C27.6805 4.8112 27.0474 4.8112 26.6569 5.20172L21 10.8586L15.3431 5.20172C14.9526 4.8112 14.3195 4.8112 13.9289 5.20172C13.5384 5.59224 13.5384 6.22541 13.9289 6.61593L20.2929 12.9799ZM20 -4.37114e-08L20 12.2728L22 12.2728L22 4.37114e-08L20 -4.37114e-08Z" fill="white"/>
<circle cx="20.9999" cy="21.0002" r="3.45456" stroke="white" stroke-width="2"/>
</svg>
