<svg xmlns="http://www.w3.org/2000/svg" xmlns:xlink="http://www.w3.org/1999/xlink" width="42" height="47.757" viewBox="0 0 42 47.757">
  <defs>
    <filter id="Pfad_39" x="0" y="0" width="42" height="47.757" filterUnits="userSpaceOnUse">
      <feOffset dy="2" input="SourceAlpha"/>
      <feGaussianBlur stdDeviation="2.5" result="blur"/>
      <feFlood flood-color="#0e1012" flood-opacity="0.475"/>
      <feComposite operator="in" in2="blur"/>
      <feComposite in="SourceGraphic"/>
    </filter>
  </defs>
  <g id="Gruppe_141" data-name="Gruppe 141" transform="translate(8.5 6.5)">
    <g id="map-pin" transform="translate(0)">
      <g transform="matrix(1, 0, 0, 1, -8.5, -6.5)" filter="url(#Pfad_39)">
        <g id="Pfad_39-2" data-name="Pfad 39" transform="translate(5.5 5.5)" fill="#383838" stroke-linecap="round">
          <path d="M 15.49999904632568 32.15648651123047 L 15.22264862060547 31.97158622741699 C 15.09313869476318 31.8852367401123 12.01480865478516 29.81903648376465 8.887019157409668 26.51747703552246 C 7.042909145355225 24.5709171295166 5.571669101715088 22.60089683532715 4.514179229736328 20.66216659545898 C 3.177669048309326 18.2118968963623 2.499999046325684 15.80219650268555 2.499999046325684 13.49999713897705 C 2.499999046325684 10.02756690979004 3.85223913192749 6.762986660003662 6.307609081268311 4.30760669708252 C 8.762989044189453 1.852236747741699 12.02756881713867 0.4999967217445374 15.49999904632568 0.4999967217445374 C 18.9724292755127 0.4999967217445374 22.23700904846191 1.852236747741699 24.6923885345459 4.30760669708252 C 27.14775848388672 6.762986660003662 28.5 10.02756690979004 28.5 13.49999713897705 C 28.5 15.80219650268555 27.82232856750488 18.2118968963623 26.48581886291504 20.66216659545898 C 25.42832946777344 22.60089683532715 23.95708847045898 24.5709171295166 22.11297988891602 26.51747703552246 C 18.98518943786621 29.81903648376465 15.90685939788818 31.8852367401123 15.7773494720459 31.97158622741699 L 15.49999904632568 32.15648651123047 Z" stroke="none"/>
          <path d="M 15.49999904632568 0.9999961853027344 C 8.596439361572266 0.9999961853027344 2.999998092651367 6.596437454223633 2.999998092651367 13.49999618530273 C 2.999998092651367 23.22221755981445 15.49999904632568 31.55555725097656 15.49999904632568 31.55555725097656 C 15.49999904632568 31.55555725097656 28 23.22221755981445 28 13.49999618530273 C 28 6.596437454223633 22.4035587310791 0.9999961853027344 15.49999904632568 0.9999961853027344 M 15.49999904632568 -3.814697265625e-06 C 19.10597991943359 -3.814697265625e-06 22.49612808227539 1.40423583984375 25.04593849182129 3.954055786132812 C 27.59575843811035 6.503866195678711 29 9.894016265869141 29 13.49999618530273 C 29 15.88679695129395 28.30178833007812 18.37705612182617 26.92476844787598 20.90158653259277 C 25.84658813476562 22.87825775146484 24.34978866577148 24.8834171295166 22.47594833374023 26.86135673522949 C 19.30986022949219 30.20334625244141 16.18612861633301 32.29998779296875 16.0546989440918 32.38760757446289 L 15.49999904632568 32.75740814208984 L 14.94529914855957 32.38760757446289 C 14.81386947631836 32.29998779296875 11.69013977050781 30.20334625244141 8.524049758911133 26.86135673522949 C 6.650209426879883 24.8834171295166 5.153409957885742 22.87825775146484 4.075229644775391 20.90158653259277 C 2.698209762573242 18.37705612182617 1.999998092651367 15.88679695129395 1.999998092651367 13.49999618530273 C 1.999998092651367 9.894016265869141 3.404239654541016 6.503866195678711 5.954059600830078 3.954055786132812 C 8.503868103027344 1.40423583984375 11.89401817321777 -3.814697265625e-06 15.49999904632568 -3.814697265625e-06 Z" stroke="none" fill="#383838"/>
        </g>
      </g>
    </g>
    <g id="assembly-point-v2" transform="translate(6.613 7.529)">
      <path id="Pfad_44" data-name="Pfad 44" d="M2,12.73l2.365-2.365L2,8" transform="translate(-2 -4.453)" fill="none" stroke="#fff" stroke-linecap="round" stroke-linejoin="round" stroke-width="1"/>
      <path id="Pfad_45" data-name="Pfad 45" d="M12.73,2,10.365,4.365,8,2" transform="translate(-4.453 -2)" fill="none" stroke="#fff" stroke-linecap="round" stroke-linejoin="round" stroke-width="1"/>
      <path id="Pfad_46" data-name="Pfad 46" d="M8,20.365,10.365,18l2.365,2.365" transform="translate(-4.453 -8.541)" fill="none" stroke="#fff" stroke-linecap="round" stroke-linejoin="round" stroke-width="1"/>
      <path id="Pfad_47" data-name="Pfad 47" d="M20.365,12.73,18,10.365,20.365,8" transform="translate(-8.541 -4.453)" fill="none" stroke="#fff" stroke-linecap="round" stroke-linejoin="round" stroke-width="1"/>
      <circle id="Ellipse_17" data-name="Ellipse 17" cx="1.165" cy="1.165" r="1.165" transform="translate(4.761 4.92)" fill="#fff"/>
    </g>
  </g>
</svg>
