<svg width="50" height="33" viewBox="0 0 50 33" fill="none" xmlns="http://www.w3.org/2000/svg">
<path d="M39.671 6.69246C39.671 6.69246 41.6846 6.69246 41.6846 3.95968C41.6846 1.2269 40.1024 1.51456 40.1024 1.51456H32.7671L39.5271 20.9317" stroke="white" stroke-width="2.5" stroke-miterlimit="10" stroke-linecap="round" stroke-linejoin="round"/>
<path d="M21.836 1.51456H18.5279L20.5415 7.41161L25.4317 21.0755L11.7678 20.9317L20.5415 7.26778H34.7807L25.4317 21.0755" stroke="white" stroke-width="2.5" stroke-miterlimit="10" stroke-linecap="round" stroke-linejoin="round"/>
<path d="M40.1025 30.9998C44.4714 30.9998 48.0131 27.4581 48.0131 23.0891C48.0131 18.7202 44.4714 15.1785 40.1025 15.1785C35.7335 15.1785 32.1918 18.7202 32.1918 23.0891C32.1918 27.4581 35.7335 30.9998 40.1025 30.9998Z" stroke="white" stroke-width="2.5" stroke-miterlimit="10" stroke-linecap="round" stroke-linejoin="round"/>
<path d="M36.3629 23.0891C36.3629 25.2466 38.0889 26.8287 40.1025 26.8287" stroke="white" stroke-width="2.5" stroke-miterlimit="10" stroke-linecap="round" stroke-linejoin="round"/>
<path d="M9.89799 30.9998C14.2669 30.9998 17.8087 27.4581 17.8087 23.0891C17.8087 18.7202 14.2669 15.1785 9.89799 15.1785C5.52904 15.1785 1.9873 18.7202 1.9873 23.0891C1.9873 27.4581 5.52904 30.9998 9.89799 30.9998Z" stroke="white" stroke-width="2.5" stroke-miterlimit="10" stroke-linecap="round" stroke-linejoin="round"/>
<path d="M6.15845 23.0891C6.15845 25.2466 7.88441 26.8287 9.89804 26.8287" stroke="white" stroke-width="2.5" stroke-miterlimit="10" stroke-linecap="round" stroke-linejoin="round"/>
</svg>
