<svg width="27" height="33" viewBox="0 0 27 33" fill="none" xmlns="http://www.w3.org/2000/svg">
<path d="M25.7273 13.3636C25.7273 22.9798 13.3636 31.2222 13.3636 31.2222C13.3636 31.2222 1 22.9798 1 13.3636C1 10.0846 2.30259 6.93986 4.62122 4.62122C6.93986 2.30259 10.0846 1 13.3636 1C16.6427 1 19.7874 2.30259 22.106 4.62122C24.4247 6.93986 25.7273 10.0846 25.7273 13.3636Z" stroke="white" stroke-width="2" stroke-linecap="round" stroke-linejoin="round"/>
<path d="M13.3636 17.4848C15.6397 17.4848 17.4849 15.6397 17.4849 13.3636C17.4849 11.0876 15.6397 9.24242 13.3636 9.24242C11.0876 9.24242 9.24243 11.0876 9.24243 13.3636C9.24243 15.6397 11.0876 17.4848 13.3636 17.4848Z" stroke="white" stroke-width="2" stroke-linecap="round" stroke-linejoin="round"/>
</svg>
