<svg width="60" height="20" viewBox="0 0 60 20" fill="none" xmlns="http://www.w3.org/2000/svg">
<path d="M43 0H51.535C52.6422 0 53.6513 0.135803 54.5482 0.42093C55.4452 0.706057 56.216 1.1132 56.8467 1.67025C57.4913 2.21336 57.9819 2.90584 58.3323 3.7205C58.6827 4.53515 58.8648 5.48561 58.8648 6.57182C58.8648 7.88886 58.5705 9.02942 57.9679 10.007C57.3826 10.9588 56.5643 11.7562 55.5854 12.3288L60 20H54.1278L50.6381 13.1841H48.3535V19.9866H43V0Z" fill="#FFE500"/>
<path d="M1 5.90196V17.5098L6.07843 14.6078L11.8824 17.5098L16.9608 14.6078V3L11.8824 5.90196L6.07843 3L1 5.90196Z" stroke="#F2F2F2" stroke-width="1.7" stroke-linecap="round" stroke-linejoin="round"/>
<path d="M6.0784 3V14.6078" stroke="#F2F2F2" stroke-width="1.7" stroke-linecap="round" stroke-linejoin="round"/>
<path d="M11.8824 5.90204V17.5099" stroke="#F2F2F2" stroke-width="1.7" stroke-linecap="round" stroke-linejoin="round"/>
</svg>