<?xml version="1.0" encoding="utf-8"?>
<!-- Generator: Adobe Illustrator 24.2.3, SVG Export Plug-In . SVG Version: 6.00 Build 0)  -->
<svg version="1.1" id="Layer_1" xmlns="http://www.w3.org/2000/svg" xmlns:xlink="http://www.w3.org/1999/xlink" x="0px" y="0px"
	 viewBox="0 0 44.5 44.5" style="enable-background:new 0 0 44.5 44.5;" xml:space="preserve">
<style type="text/css">
	.st0{fill:#FFFFFF;}
</style>
<path class="st0" d="M22,0C9.8,0,0,9.8,0,22c0,12.1,9.8,22,22,22s22-9.9,22-22C44,9.8,34.2,0,22,0z M26,32l-3.5-7h-2.3v7h-5.3V11.5
	h8.5c1,0,2,0.1,3,0.4c0.9,0.3,1.6,0.7,2.3,1.3c0.6,0.6,1.2,1.3,1.5,2.1c0.4,0.9,0.5,1.9,0.5,2.9c0,1.2-0.3,2.5-0.9,3.5
	c-0.6,1-1.4,1.8-2.4,2.4l4.4,7.9H26z"/>
</svg>
