<svg width="70.703" height="83.775" xmlns="http://www.w3.org/2000/svg">

 <g>
  <title>background</title>
  <rect fill="none" id="canvas_background" height="602" width="802" y="-1" x="-1"/>
 </g>
 <g>
  <title>Layer 1</title>
  <g opacity="0.25" id="Gruppe_252">
   <g stroke-linecap="round" fill="#383838" id="Pfad_39">
    <path id="svg_1" d="m35.35115,81.38803l-1.09285,-0.713c-0.32769,-0.21382 -8.11666,-5.33017 -16.01972,-13.4942c-4.67167,-4.82593 -8.40185,-9.71559 -11.08694,-14.53314c-3.41838,-6.13322 -5.15163,-12.17781 -5.15163,-17.96587c0,-4.41653 0.88413,-8.7016 2.62784,-12.7362c1.68254,-3.89305 4.09011,-7.38826 7.15581,-10.38851c3.0627,-2.99732 6.62881,-5.35041 10.59928,-6.99392c4.10888,-1.70081 8.47202,-2.56319 12.96821,-2.56319c4.49619,0 8.85932,0.86238 12.96821,2.56319c3.97046,1.64351 7.53657,3.9966 10.59928,6.99392c3.0657,3.00025 5.47327,6.49545 7.15581,10.38851c1.74373,4.03459 2.62786,8.31967 2.62786,12.7362c0,5.78806 -1.73327,11.83265 -5.15165,17.96587c-2.68507,4.81755 -6.41526,9.70721 -11.08694,14.53314c-7.90306,8.16403 -15.69203,13.28038 -16.01972,13.4942l-1.09285,0.713z"/>
    <path id="svg_2" fill="#fff" d="m35.35115,4c-17.31477,0 -31.35114,13.73672 -31.35114,30.68181c0,23.86365 31.35114,44.31819 31.35114,44.31819c0,0 31.35115,-20.45454 31.35115,-44.31819c0,-16.94509 -14.03639,-30.68181 -31.35115,-30.68181m0,-4c4.76,0 9.38049,0.91354 13.73313,2.71526c4.20766,1.74167 7.98705,4.23559 11.23323,7.41246c3.25216,3.18274 5.80676,6.8919 7.59281,11.02445c1.85262,4.28658 2.79197,8.8386 2.79197,13.52964c0,6.13292 -1.81838,12.50511 -5.40464,18.93957c-2.76978,4.9695 -6.60426,9.99958 -11.39694,14.95051c-8.05743,8.32348 -16.02849,13.55934 -16.36388,13.77815l-2.18568,1.42601l-2.18568,-1.42601c-0.33539,-0.21881 -8.30645,-5.45467 -16.36388,-13.77815c-4.79268,-4.95093 -8.62716,-9.98101 -11.39693,-14.95051c-3.58627,-6.43446 -5.40465,-12.80665 -5.40465,-18.93957c0,-4.69104 0.93935,-9.24306 2.79197,-13.52964c1.78605,-4.13255 4.34065,-7.84171 7.59281,-11.02445c3.24617,-3.17687 7.02557,-5.67079 11.23323,-7.41248c4.35262,-1.8017 8.97313,-2.71524 13.73313,-2.71524z"/>
   </g>
   <path stroke-width="4" stroke-linejoin="round" stroke-linecap="round" stroke="#fff" fill="none" d="m18.445313,43.835578l6.972,-6.972l-6.972,-6.971" id="Pfad_44"/>
   <path stroke-width="4" stroke-linejoin="round" stroke-linecap="round" stroke="#fff" fill="none" d="m42.845344,19.435547l-6.971,6.972l-6.972,-6.972" id="Pfad_45"/>
   <path stroke-width="4" stroke-linejoin="round" stroke-linecap="round" stroke="#fff" fill="none" d="m28.902344,54.294266l6.972,-6.972l6.972,6.972" id="Pfad_46"/>
   <path stroke-width="4" stroke-linejoin="round" stroke-linecap="round" stroke="#fff" fill="none" d="m53.304031,43.835578l-6.972,-6.971l6.972,-6.972" id="Pfad_47"/>
   <circle fill="#fff" r="3.5" cy="36.365234" cx="35.785156" id="Ellipse_17"/>
  </g>
 </g>
</svg>