<svg width="78" height="16" viewBox="0 0 78 16" fill="none" xmlns="http://www.w3.org/2000/svg">
<path d="M6.10949 1L11.219 14.9489L6.10949 12.0123L1 14.9489L6.10949 1Z" stroke="black" stroke-width="1.8" stroke-linecap="round" stroke-linejoin="round"/>
<path d="M27.6713 10.616C27.8153 10.784 27.9833 10.964 28.1753 11.156C28.3793 11.336 28.6013 11.51 28.8413 11.678C29.0933 11.834 29.3693 11.966 29.6693 12.074C29.9813 12.182 30.3293 12.236 30.7133 12.236C31.4213 12.236 31.9433 12.074 32.2793 11.75C32.6273 11.426 32.8013 11.036 32.8013 10.58C32.8013 10.328 32.7533 10.106 32.6573 9.914C32.5613 9.71 32.3993 9.536 32.1713 9.392C31.9433 9.236 31.6433 9.098 31.2713 8.978C30.9113 8.858 30.4613 8.744 29.9213 8.636C29.3693 8.528 28.8893 8.36 28.4813 8.132C28.0853 7.904 27.7553 7.634 27.4913 7.322C27.2273 7.01 27.0293 6.668 26.8973 6.296C26.7653 5.912 26.6993 5.522 26.6993 5.126C26.6993 4.67 26.7833 4.238 26.9513 3.83C27.1193 3.41 27.3773 3.044 27.7253 2.732C28.0733 2.408 28.5053 2.15 29.0213 1.958C29.5493 1.766 30.1673 1.67 30.8753 1.67C31.5113 1.67 32.0573 1.742 32.5133 1.886C32.9693 2.03 33.3473 2.198 33.6473 2.39C33.9593 2.582 34.1993 2.774 34.3673 2.966C34.5353 3.146 34.6553 3.278 34.7273 3.362L33.2333 4.766C33.1733 4.718 33.0773 4.634 32.9453 4.514C32.8133 4.382 32.6453 4.256 32.4413 4.136C32.2493 4.016 32.0153 3.908 31.7393 3.812C31.4633 3.716 31.1513 3.668 30.8033 3.668C30.4913 3.668 30.2213 3.71 29.9933 3.794C29.7653 3.878 29.5733 3.986 29.4173 4.118C29.2733 4.25 29.1653 4.4 29.0933 4.568C29.0213 4.724 28.9853 4.874 28.9853 5.018C28.9853 5.234 29.0213 5.426 29.0933 5.594C29.1773 5.762 29.3093 5.918 29.4893 6.062C29.6813 6.206 29.9393 6.338 30.2633 6.458C30.5873 6.566 30.9953 6.668 31.4873 6.764C31.9553 6.86 32.4053 7.004 32.8373 7.196C33.2693 7.388 33.6473 7.64 33.9713 7.952C34.3073 8.252 34.5713 8.624 34.7633 9.068C34.9673 9.5 35.0693 10.022 35.0693 10.634C35.0693 11.162 34.9613 11.648 34.7453 12.092C34.5293 12.536 34.2293 12.926 33.8453 13.262C33.4613 13.598 33.0053 13.856 32.4773 14.036C31.9493 14.228 31.3733 14.324 30.7493 14.324C30.1493 14.324 29.6033 14.252 29.1113 14.108C28.6313 13.964 28.1933 13.784 27.7973 13.568C27.4133 13.34 27.0773 13.094 26.7893 12.83C26.5133 12.566 26.2793 12.314 26.0873 12.074L27.6713 10.616ZM39.9254 3.992H35.8574V1.994H46.2614V3.992H42.1934V14H39.9254V3.992ZM49.4933 1.994H51.8333L56.3873 14H53.8673L52.8233 10.958H48.3593L47.3153 14H44.9393L49.4933 1.994ZM52.1753 9.086L50.5913 4.424L48.9893 9.086H52.1753ZM57.8147 1.994H61.7927C62.5487 1.994 63.1907 2.108 63.7187 2.336C64.2467 2.564 64.6727 2.858 64.9967 3.218C65.3207 3.566 65.5547 3.95 65.6987 4.37C65.8547 4.79 65.9327 5.192 65.9327 5.576C65.9327 6.332 65.7647 7.004 65.4287 7.592C65.1047 8.168 64.6007 8.63 63.9167 8.978L66.6887 14H64.1327L61.7027 9.266H59.9927V14H57.8147V1.994ZM61.8107 7.394C62.3867 7.394 62.8307 7.226 63.1427 6.89C63.4667 6.554 63.6287 6.146 63.6287 5.666C63.6287 5.15 63.4607 4.73 63.1247 4.406C62.7887 4.082 62.3507 3.92 61.8107 3.92H59.9927V7.394H61.8107ZM71.232 3.992H67.164V1.994H77.568V3.992H73.5V14H71.232V3.992Z" fill="#121212"/>
</svg>
