<svg xmlns="http://www.w3.org/2000/svg" width="274" height="274" viewBox="0 0 274 274">
  <g id="Gruppe_101" data-name="Gruppe 101" transform="translate(-149 -469)">
    <g id="Ellipse_49" data-name="Ellipse 49" transform="translate(174 494)" fill="#fff" stroke="rgba(255,255,255,0.2)" stroke-width="25">
      <circle cx="112" cy="112" r="112" stroke="none"/>
      <circle cx="112" cy="112" r="124.5" fill="none"/>
    </g>
    <g id="Gruppe_96" data-name="Gruppe 96" transform="translate(12 41)">
      <rect id="Rechteck_17" data-name="Rechteck 17" width="100" height="40" rx="20" transform="translate(222 545)" fill="#4f4f4f"/>
      <rect id="Rechteck_18" data-name="Rechteck 18" width="48" height="34" rx="17" transform="translate(225 548)" fill="#fff"/>
      <g id="Gruppe_52" data-name="Gruppe 52" transform="translate(288.182 554.367)">
        <path id="Pfad_36" data-name="Pfad 36" d="M0,0H8.5a9.623,9.623,0,0,1,3,.433,6.22,6.22,0,0,1,2.29,1.285,5.6,5.6,0,0,1,1.48,2.108,7.579,7.579,0,0,1,.531,2.932,6.744,6.744,0,0,1-.894,3.532,6.937,6.937,0,0,1-2.374,2.388l4.4,7.889h-5.85L7.609,13.557H5.334v7H0Z" fill="#ffe600"/>
      </g>
      <g id="map" transform="translate(240 556)">
        <path id="Pfad_37" data-name="Pfad 37" d="M1,4.936V16.682l5.139-2.936,5.873,2.936,5.139-2.936V2L12.012,4.936,6.139,2Z" fill="none" stroke="#4f4f4f" stroke-linecap="round" stroke-linejoin="round" stroke-width="2"/>
        <line id="Linie_22" data-name="Linie 22" y2="11" transform="translate(6.075 2.341)" fill="none" stroke="#4f4f4f" stroke-linecap="round" stroke-linejoin="round" stroke-width="2"/>
        <line id="Linie_23" data-name="Linie 23" y2="11" transform="translate(12.075 5.341)" fill="none" stroke="#4f4f4f" stroke-linecap="round" stroke-linejoin="round" stroke-width="2"/>
      </g>
    </g>
  </g>
</svg>
