<svg xmlns="http://www.w3.org/2000/svg" width="425" height="148" viewBox="0 0 425 148">
  <g id="Gruppe_102" data-name="Gruppe 102" transform="translate(25 25)">
    <g id="Rechteck_34" data-name="Rechteck 34" fill="#fff" stroke="rgba(255,255,255,0.2)" stroke-width="25">
      <path d="M0,0H375a0,0,0,0,1,0,0V78a20,20,0,0,1-20,20H20A20,20,0,0,1,0,78V0A0,0,0,0,1,0,0Z" stroke="none"/>
      <path d="M0-12.5H375A12.5,12.5,0,0,1,387.5,0V78A32.5,32.5,0,0,1,355,110.5H20A32.5,32.5,0,0,1-12.5,78V0A12.5,12.5,0,0,1,0-12.5Z" fill="none"/>
    </g>
    <g id="Gruppe_91" data-name="Gruppe 91">
      <g id="input" transform="translate(41 24)">
        <rect id="Rechteck_4" data-name="Rechteck 4" width="294" height="50" rx="5" fill="#4f4f4f"/>
        <text id="Hier_suchen" data-name="Hier suchen" transform="translate(20 32)" fill="#888" font-size="16" font-family="Poppins-Regular, Poppins"><tspan x="0" y="0">Hier suchen</tspan></text>
      </g>
    </g>
  </g>
</svg>
