<?xml version="1.0" standalone="no"?>
<!DOCTYPE svg PUBLIC "-//W3C//DTD SVG 20010904//EN"
 "http://www.w3.org/TR/2001/REC-SVG-20010904/DTD/svg10.dtd">
<svg version="1.0" xmlns="http://www.w3.org/2000/svg"
 width="1070.000000pt" height="802.000000pt" viewBox="0 0 1070.000000 802.000000"
 preserveAspectRatio="xMidYMid meet">
<metadata>
Created by potrace 1.16, written by Peter Selinger 2001-2019
</metadata>
<g transform="translate(0.000000,802.000000) scale(0.100000,-0.100000)"
fill="#000000" stroke="none">
<path d="M6230 6889 c-182 -19 -381 -75 -550 -155 -327 -155 -629 -457 -784
-784 -218 -460 -218 -980 0 -1440 155 -327 457 -629 784 -784 267 -126 572
-183 852 -158 424 38 776 206 1069 510 619 640 621 1659 5 2299 -160 167 -301
269 -501 364 -269 127 -581 180 -875 148z m315 -1025 c60 -28 123 -91 156
-156 17 -32 24 -66 27 -129 4 -78 2 -92 -23 -148 -32 -71 -102 -142 -173 -174
-63 -29 -186 -30 -257 -3 -70 27 -146 103 -180 178 -25 55 -27 69 -23 147 3
63 10 97 27 129 48 93 137 163 231 183 58 13 159 0 215 -27z m257 -796 c70
-32 135 -96 168 -163 20 -41 25 -69 28 -163 2 -61 1 -123 -2 -136 -13 -52
-110 -55 -120 -4 -3 13 -7 67 -9 121 -4 86 -8 103 -33 144 -19 30 -45 55 -73
70 -44 23 -49 23 -361 23 -312 0 -317 0 -361 -23 -29 -15 -54 -40 -74 -71 -26
-43 -30 -58 -33 -145 -1 -53 -5 -106 -8 -119 -11 -51 -107 -48 -120 4 -3 13
-4 75 -2 136 3 94 8 122 28 163 43 89 133 161 227 184 21 5 184 9 363 8 l325
-2 57 -27z"/>
<path d="M6309 5740 c-123 -65 -144 -227 -43 -322 38 -35 74 -48 134 -48 60 0
96 13 134 48 102 96 79 259 -45 322 -50 26 -132 26 -180 0z"/>
</g>
</svg>
