<svg xmlns="http://www.w3.org/2000/svg" xmlns:xlink="http://www.w3.org/1999/xlink" width="274" height="274" viewBox="0 0 274 274">
  <defs>
    <clipPath id="clip-path">
      <rect id="Rechteck_14" data-name="Rechteck 14" width="24" height="24" transform="translate(-0.11 -0.11)" fill="#fff"/>
    </clipPath>
  </defs>
  <g id="Gruppe_104" data-name="Gruppe 104" transform="translate(-76 -487)">
    <g id="Ellipse_49" data-name="Ellipse 49" transform="translate(101 512)" fill="#fff" stroke="rgba(255,255,255,0.2)" stroke-width="25">
      <circle cx="112" cy="112" r="112" stroke="none"/>
      <circle cx="112" cy="112" r="124.5" fill="none"/>
    </g>
    <rect id="Rechteck_5" data-name="Rechteck 5" width="88" height="48" rx="24" transform="translate(169 600)" fill="#4f4f4f"/>
    <g id="Gruppe_maskieren_17" data-name="Gruppe maskieren 17" transform="translate(201.11 612.11)" clip-path="url(#clip-path)">
      <g id="save" transform="translate(1.189 1.189)">
        <path id="Pfad_48" data-name="Pfad 48" d="M22.023,24.4H5.378A2.378,2.378,0,0,1,3,22.023V5.378A2.378,2.378,0,0,1,5.378,3H18.456L24.4,8.945V22.023A2.378,2.378,0,0,1,22.023,24.4Z" transform="translate(-3 -3)" fill="none" stroke="#fff" stroke-linecap="round" stroke-linejoin="round" stroke-width="2"/>
        <path id="Pfad_49" data-name="Pfad 49" d="M18.89,22.512V13H7v9.512" transform="translate(-2.244 -1.11)" fill="none" stroke="#fff" stroke-linecap="round" stroke-linejoin="round" stroke-width="2"/>
        <path id="Pfad_50" data-name="Pfad 50" d="M7,3V8.945h9.512" transform="translate(-2.244 -3)" fill="none" stroke="#fff" stroke-linecap="round" stroke-linejoin="round" stroke-width="2"/>
      </g>
    </g>
  </g>
</svg>
