<svg width="26" height="26" viewBox="0 0 26 26" fill="none" xmlns="http://www.w3.org/2000/svg">
<path d="M6.03527 25.0715C4.93335 25.0715 3.85618 24.7447 2.93996 24.1326C2.02375 23.5204 1.30965 22.6502 0.887967 21.6322C0.466281 20.6142 0.355949 19.4939 0.570923 18.4132C0.785896 17.3324 1.31652 16.3397 2.09569 15.5605C2.87487 14.7814 3.8676 14.2507 4.94834 14.0358C6.02909 13.8208 7.14931 13.9311 8.16735 14.3528C9.18539 14.7745 10.0555 15.4886 10.6677 16.4048C11.2799 17.321 11.6067 18.3982 11.6067 19.5001C11.6067 20.9777 11.0197 22.3948 9.97484 23.4397C8.93 24.4845 7.51289 25.0715 6.03527 25.0715ZM6.03527 15.7858C5.30065 15.7858 4.58254 16.0037 3.97173 16.4118C3.36092 16.8199 2.88486 17.4 2.60373 18.0787C2.32261 18.7574 2.24905 19.5042 2.39237 20.2247C2.53569 20.9452 2.88944 21.607 3.40888 22.1265C3.92833 22.6459 4.59015 22.9997 5.31065 23.143C6.03115 23.2863 6.77796 23.2128 7.45665 22.9316C8.13535 22.6505 8.71543 22.1745 9.12356 21.5636C9.53169 20.9528 9.74953 20.2347 9.74953 19.5001C9.74953 18.515 9.35821 17.5703 8.66165 16.8737C7.96509 16.1772 7.02035 15.7858 6.03527 15.7858Z" fill="white"/>
<path d="M19.964 25.0715C18.8621 25.0715 17.7849 24.7447 16.8687 24.1326C15.9525 23.5204 15.2384 22.6502 14.8167 21.6322C14.395 20.6142 14.2847 19.4939 14.4996 18.4132C14.7146 17.3324 15.2452 16.3397 16.0244 15.5605C16.8036 14.7814 17.7963 14.2507 18.8771 14.0358C19.9578 13.8208 21.078 13.9311 22.0961 14.3528C23.1141 14.7745 23.9842 15.4886 24.5964 16.4048C25.2086 17.321 25.5354 18.3982 25.5354 19.5001C25.5354 20.9777 24.9484 22.3948 23.9035 23.4397C22.8587 24.4845 21.4416 25.0715 19.964 25.0715ZM19.964 15.7858C19.2294 15.7858 18.5113 16.0037 17.9004 16.4118C17.2896 16.8199 16.8136 17.4 16.5324 18.0787C16.2513 18.7574 16.1778 19.5042 16.3211 20.2247C16.4644 20.9452 16.8181 21.607 17.3376 22.1265C17.857 22.6459 18.5189 22.9997 19.2394 23.143C19.9599 23.2863 20.7067 23.2128 21.3854 22.9316C22.0641 22.6505 22.6441 22.1745 23.0523 21.5636C23.4604 20.9528 23.6782 20.2347 23.6782 19.5001C23.6782 18.515 23.2869 17.5703 22.5904 16.8737C21.8938 16.1772 20.9491 15.7858 19.964 15.7858Z" fill="white"/>
<path d="M15.3215 18.5715H10.6787V20.4287H15.3215V18.5715Z" fill="white"/>
<path d="M25.0713 10.2146H0.928566C0.415733 10.2146 0 10.6303 0 11.1432C0 11.656 0.415733 12.0717 0.928566 12.0717H25.0713C25.5841 12.0717 25.9998 11.656 25.9998 11.1432C25.9998 10.6303 25.5841 10.2146 25.0713 10.2146Z" fill="white"/>
<path d="M23.92 12.0715H2.08008L4.15078 2.71156C4.26393 2.20861 4.54387 1.75872 4.94511 1.43504C5.34634 1.11135 5.84527 0.932906 6.36077 0.928711H10.3629C10.88 0.930814 11.3811 1.1083 11.7842 1.43216C12.1873 1.75601 12.4687 2.20707 12.5822 2.71156L12.8979 4.15083C12.8979 4.23441 13.0836 4.23441 13.1022 4.15083L13.4179 2.71156C13.5314 2.20707 13.8127 1.75601 14.2158 1.43216C14.619 1.1083 15.12 0.930814 15.6371 0.928711H19.6393C20.1564 0.930814 20.6574 1.1083 21.0606 1.43216C21.4637 1.75601 21.745 2.20707 21.8585 2.71156L23.92 12.0715ZM4.42006 10.2144H21.6078L20.0385 3.11084C20.0178 3.01987 19.9673 2.93844 19.8949 2.87955C19.8225 2.82065 19.7325 2.78766 19.6393 2.78584H15.6371C15.5439 2.78766 15.4539 2.82065 15.3815 2.87955C15.3091 2.93844 15.2586 3.01987 15.2379 3.11084L14.9129 4.55012C14.8163 4.98551 14.5742 5.37496 14.2264 5.6541C13.8786 5.93325 13.446 6.08539 13 6.08539C12.554 6.08539 12.1214 5.93325 11.7736 5.6541C11.4258 5.37496 11.1837 4.98551 11.0872 4.55012L10.7715 3.11084C10.7504 3.01833 10.6984 2.93575 10.6242 2.87668C10.5499 2.81762 10.4578 2.78558 10.3629 2.78584H6.36077C6.26748 2.78766 6.17749 2.82065 6.10513 2.87955C6.03277 2.93844 5.9822 3.01987 5.96148 3.11084L4.42006 10.2144Z" fill="white"/>
</svg>
