<svg width="48" height="48" viewBox="0 0 48 48" fill="none" xmlns="http://www.w3.org/2000/svg">
<g filter="url(#filter0_d)">
<circle cx="24" cy="23" r="20" fill="#454545"/>
</g>
<path d="M24 33C29.5228 33 34 28.5228 34 23C34 17.4772 29.5228 13 24 13C18.4772 13 14 17.4772 14 23C14 28.5228 18.4772 33 24 33Z" stroke="white" stroke-width="2" stroke-linecap="round" stroke-linejoin="round"/>
<path d="M21.0898 20.0001C21.3249 19.3317 21.789 18.7682 22.3998 18.4092C23.0106 18.0502 23.7287 17.919 24.427 18.0388C25.1253 18.1586 25.7587 18.5216 26.2149 19.0636C26.6712 19.6056 26.9209 20.2916 26.9198 21.0001C26.9198 23.0001 23.9198 24.0001 23.9198 24.0001" stroke="white" stroke-width="2" stroke-linecap="round" stroke-linejoin="round"/>
<path d="M24 28H24.01" stroke="white" stroke-width="2" stroke-linecap="round" stroke-linejoin="round"/>
<defs>
<filter id="filter0_d" x="0" y="0" width="48" height="48" filterUnits="userSpaceOnUse" color-interpolation-filters="sRGB">
<feFlood flood-opacity="0" result="BackgroundImageFix"/>
<feColorMatrix in="SourceAlpha" type="matrix" values="0 0 0 0 0 0 0 0 0 0 0 0 0 0 0 0 0 0 127 0"/>
<feOffset dy="1"/>
<feGaussianBlur stdDeviation="2"/>
<feColorMatrix type="matrix" values="0 0 0 0 0 0 0 0 0 0 0 0 0 0 0 0 0 0 0.16 0"/>
<feBlend mode="normal" in2="BackgroundImageFix" result="effect1_dropShadow"/>
<feBlend mode="normal" in="SourceGraphic" in2="effect1_dropShadow" result="shape"/>
</filter>
</defs>
</svg>
